<?xml version="1.0" encoding="utf-8"?>
<!-- Generator: Adobe Illustrator 25.2.1, SVG Export Plug-In . SVG Version: 6.00 Build 0)  -->
<svg version="1.1" id="Capa_1" xmlns="http://www.w3.org/2000/svg" xmlns:xlink="http://www.w3.org/1999/xlink" x="0px" y="0px"
	 viewBox="0 0 41 42.9" style="enable-background:new 0 0 41 42.9;" xml:space="preserve">
<style type="text/css">
	.st0{fill:#092240;}
</style>
<g>
	<g>
		<path class="st0" d="M14.3,16C7,16,1.1,21.9,1.1,29.2S7,42.4,14.3,42.4s13.2-5.9,13.2-13.2S21.6,16,14.3,16z M15.4,35.4v0.7
			c0,0.6-0.5,1.1-1.1,1.1s-1.1-0.5-1.1-1.1v-0.7c-0.6-0.2-1.2-0.5-1.7-1c-0.4-0.4-0.4-1.1,0-1.5s1.1-0.4,1.5,0
			c0.3,0.3,0.7,0.5,1.2,0.5c0.9,0,1.6-0.7,1.6-1.6c0-0.9-0.7-1.6-1.6-1.6c-2.1,0-3.8-1.7-3.8-3.8c0-1.7,1.1-3.1,2.7-3.6v-0.7
			c0-0.6,0.5-1.1,1.1-1.1s1.1,0.5,1.1,1.1v0.8c0.6,0.2,1.2,0.5,1.7,1c0.4,0.4,0.4,1.1,0,1.5s-1.1,0.4-1.5,0
			c-0.3-0.3-0.7-0.5-1.2-0.5c-0.9,0-1.6,0.7-1.6,1.6s0.7,1.6,1.6,1.6c2.1,0,3.8,1.7,3.8,3.8C18.1,33.5,16.9,34.9,15.4,35.4z"/>
		<path class="st0" d="M10,0.5c-5.3,0-9.5,4.3-9.5,9.5c0,3.2,1.6,6.1,4.1,7.8c2.6-2.3,6-3.6,9.8-3.6c0.4,0,0.8,0,1.1,0
			c0.1-3.2,1.3-6.1,3.2-8.4C17.1,2.7,13.8,0.5,10,0.5z M11.8,8.2c0.4,0,0.7,0.3,0.7,0.7s-0.3,0.7-0.7,0.7h-1.6v0.7h1.6
			c0.4,0,0.7,0.3,0.7,0.7s-0.3,0.7-0.7,0.7h-1.6v0.9c0,0.4-0.3,0.7-0.7,0.7S8.8,13,8.8,12.6v-0.9H7.2c-0.4,0-0.7-0.3-0.7-0.7
			s0.3-0.7,0.7-0.7h1.6V9.6H7.2c-0.4,0-0.7-0.3-0.7-0.7s0.3-0.7,0.7-0.7H8L6.5,5.8C6.3,5.5,6.4,5,6.7,4.8s0.8-0.1,1,0.2l1.8,2.7
			L11.3,5c0.2-0.3,0.6-0.4,1-0.2c0.3,0.2,0.4,0.6,0.2,1L11,8.2H11.8z"/>
		<path class="st0" d="M28.8,2.9c-6.4,0-11.6,5.2-11.7,11.6c5.9,1.1,10.6,5.8,11.8,11.8c6.4-0.1,11.6-5.3,11.6-11.7
			C40.5,8.2,35.3,2.9,28.8,2.9z M33,10c-0.1,0.4-0.6,0.5-0.9,0.4s-0.7-0.2-1.1-0.2c-1.2,0-2.2,0.7-2.8,1.8h3c0.4,0,0.7,0.3,0.7,0.7
			s-0.3,0.7-0.7,0.7h-3.5c0,0.2,0,0.9,0,1h3.5c0.4,0,0.7,0.3,0.7,0.7s-0.3,0.7-0.7,0.7h-3c0.6,1,1.6,1.8,2.8,1.8
			c0.3,0,0.6,0,0.9-0.1c0.4-0.1,0.8,0.1,0.9,0.5s-0.1,0.8-0.5,0.9c-0.4,0.1-0.9,0.2-1.3,0.2c-2,0-3.7-1.3-4.4-3.2h-1.2
			c-0.4,0-0.7-0.3-0.7-0.7s0.3-0.7,0.7-0.7h0.9c0-0.2,0-0.9,0-1h-0.9c-0.4,0-0.7-0.3-0.7-0.7s0.3-0.7,0.7-0.7h1.2
			c0.7-1.9,2.4-3.2,4.4-3.2c0.6,0,1.1,0.1,1.6,0.3C32.9,9.2,33.1,9.6,33,10z"/>
	</g>
</g>
</svg>
