<?xml version="1.0" encoding="utf-8"?>
<!-- Generator: Adobe Illustrator 25.2.1, SVG Export Plug-In . SVG Version: 6.00 Build 0)  -->
<svg version="1.1" id="Capa_1" xmlns="http://www.w3.org/2000/svg" xmlns:xlink="http://www.w3.org/1999/xlink" x="0px" y="0px"
	 viewBox="0 0 64.6 41.9" style="enable-background:new 0 0 64.6 41.9;" xml:space="preserve">
<style type="text/css">
	.st0{fill:#092240;}
</style>
<g>
	<g>
		<path class="st0" d="M57.8,0.8H7.2c-3.1,0-5.7,2.6-5.7,5.7v5h62v-5C63.5,3.2,60.9,0.8,57.8,0.8z"/>
		<path class="st0" d="M1.5,35c0,3.1,2.6,5.7,5.7,5.7h50.5c3.1,0,5.7-2.6,5.7-5.7V17.7h-62V35z M44,23.5c1.2,0,2.3,0.5,3.1,1.1
			c0.9-0.6,2-1.1,3.1-1.1c2.8,0,5.1,2.3,5.1,5.1s-2.3,5.1-5.1,5.1c-1.2,0-2.3-0.5-3.1-1.1c-0.9,0.6-2,1.1-3.1,1.1
			c-2.8,0-5.1-2.3-5.1-5.1S41.2,23.5,44,23.5z M9.8,30.7c0-0.5,0.3-0.8,0.8-0.8h11.9c0.5,0,0.8,0.3,0.8,0.8V33
			c0,0.5-0.3,0.8-0.8,0.8H10.6c-0.5,0-0.8-0.3-0.8-0.8V30.7z"/>
	</g>
</g>
</svg>
