<?xml version="1.0" encoding="utf-8"?>
<!-- Generator: Adobe Illustrator 25.2.1, SVG Export Plug-In . SVG Version: 6.00 Build 0)  -->
<svg version="1.1" id="Camada_1" xmlns="http://www.w3.org/2000/svg" xmlns:xlink="http://www.w3.org/1999/xlink" x="0px" y="0px"
	 viewBox="0 0 55.2 40.5" style="enable-background:new 0 0 55.2 40.5;" xml:space="preserve">
<style type="text/css">
	.st0{fill:#092240;stroke:#092240;stroke-miterlimit:10;}
</style>
<g id="a">
</g>
<g id="b">
	<path class="st0" d="M54.9,18.7c-0.4-5.6-4.9-8.1-6.3-8.7v-6c0-2-1.6-3.7-3.7-3.7h-41c-2,0-3.7,1.6-3.7,3.7v21c0,2,1.6,3.7,3.7,3.7
		h20.6c-0.7,0.7-1.4,1.5-2,2.3c-0.1,0.1-0.1,0.4,0,0.7c4.5,5.5,10.4,8.5,10.6,8.6c0.1,0,0.1,0,0.3,0c0.1,0,0.1,0,0.3-0.1
		c0.1-0.1,0.3-0.3,0.3-0.4v-2.6c2.2,0,9.8,0,14.1-3C50.8,32.2,55.4,27.7,54.9,18.7L54.9,18.7z M3.9,27.7c-1.5,0-2.6-1.2-2.6-2.6v-21
		c0-1.5,1.2-2.6,2.6-2.6h41c1.5,0,2.6,1.2,2.6,2.6v6.3v0.1v5.5c0,0-0.8,5.2-7.4,8.3c-2.3,1.1-5.2,1.4-6.3,1.4V23
		c0-0.1-0.1-0.4-0.3-0.4c-0.1-0.1-0.4-0.1-0.5,0c-0.1,0.1-3.8,1.9-7.5,5.2H3.9V27.7z M47.3,33.3C42.7,36.4,33.4,36,33.4,36
		c-0.1,0-0.3,0-0.4,0.1s-0.1,0.3-0.1,0.4v2.3c-1.6-1-5.9-3.5-9.3-7.5c3.4-4,7.6-6.6,9.3-7.5v2.3c0,0.3,0.3,0.5,0.5,0.5
		c0.1,0,4.1,0,7.2-1.5c7.1-3.4,7.9-8.9,7.9-9.1v-4.8c1.5,0.8,4.9,3,5.2,7.6C54.3,27.1,49.9,31.5,47.3,33.3z M27.7,18.4
		c0.7-1.1,0.5-2.3-0.1-3.5c-0.4-0.7-1.2-1.2-2-1.8c-0.7-0.5-1.1-0.8-1.2-0.8c0-0.1,0-0.3,0.1-0.3c0,0,0,0,0.1,0
		c0.1,0,0.3,0.1,0.3,0.1c0.5,0.7,1.4,0.8,2.2,0.4c0.7-0.4,1-1.4,0.5-2C27.3,9.9,26.3,9.1,25,9c0-0.1,0-0.1,0-0.1
		c-0.1-0.4-0.8-0.4-0.8,0v0.3c-0.8,0.1-1.5,0.5-2,1.1c-0.7,0.7-1,1.6-0.8,2.6c0.1,1.4,1.5,2.2,2.6,2.9c0.3,0.3,1,0.7,1.1,0.8
		c0.1,0.1,0.1,0.4,0.1,0.5c-0.1,0.1-0.3,0.3-0.5,0.3c-0.1,0-0.5-0.3-0.7-0.5c-0.4-0.7-1.4-1-2.2-0.5c-0.7,0.4-1,1.2-0.7,2
		c0.4,1,1.6,1.9,3,2v0.3c0.1,0.4,0.8,0.4,0.8,0c0,0,0-0.1,0-0.3C26.1,20,27.1,19.4,27.7,18.4L27.7,18.4z M21.8,17.7
		c0-0.1-0.1-0.5,0.1-0.7c0.1,0,0.1-0.1,0.3-0.1c0.1,0,0.4,0.1,0.5,0.3c0,0,0.7,1.1,1.6,1c0.5,0,1.1-0.3,1.4-0.8
		c0.3-0.5,0.3-1.1-0.1-1.6c-0.3-0.4-0.7-0.7-1.5-1.2c-1-0.5-1.9-1.2-2-2.2c-0.1-0.7,0.1-1.4,0.5-1.8c0.4-0.4,1-0.7,1.6-0.8
		c1.2-0.1,2,0.5,2.2,1c0.1,0.1,0.1,0.5-0.1,0.7c-0.3,0.1-0.5,0.1-0.8-0.1c-0.1-0.1-0.5-0.5-1.2-0.5c-0.3,0-0.7,0.1-0.8,0.4
		c-0.3,0.3-0.4,0.7-0.3,1.1c0,0.4,0.5,0.8,1.6,1.6c0.7,0.4,1.4,1,1.8,1.5c0.5,0.8,0.5,1.8,0.1,2.5c-0.4,0.7-1.2,1.2-2.2,1.2
		C23.2,19.2,22.1,18.4,21.8,17.7L21.8,17.7z M12.8,12.5c-1.1,0-2,1-2,2s1,2,2,2s2-1,2-2C15,13.5,14,12.5,12.8,12.5z M12.8,15.7
		c-0.5,0-1.1-0.4-1.1-1.1c0-0.5,0.4-1.1,1.1-1.1c0.7,0,1.1,0.4,1.1,1.1C13.9,15.1,13.5,15.7,12.8,15.7z M36,16.6c1.1,0,2-1,2-2
		s-1-2-2-2s-2,1-2,2C33.8,15.7,34.8,16.6,36,16.6z M36,13.5c0.5,0,1.1,0.4,1.1,1.1c0,0.5-0.4,1.1-1.1,1.1c-0.5,0-1.1-0.4-1.1-1.1
		C34.9,14,35.3,13.5,36,13.5z"/>
</g>
</svg>
