<?xml version="1.0" encoding="utf-8"?>
<!-- Generator: Adobe Illustrator 25.2.1, SVG Export Plug-In . SVG Version: 6.00 Build 0)  -->
<svg version="1.1" id="Layer_1" xmlns="http://www.w3.org/2000/svg" xmlns:xlink="http://www.w3.org/1999/xlink" x="0px" y="0px"
	 viewBox="0 0 37.1 42" style="enable-background:new 0 0 37.1 42;" xml:space="preserve">
<style type="text/css">
	.st0{fill:#092240;}
</style>
<g>
	<g>
		<g>
			<path class="st0" d="M32,41.3H5.2c-1,0-1.7-0.7-1.7-1.7V3c0-1,0.7-1.7,1.7-1.7H32c1,0,1.7,0.7,1.7,1.7v36.7
				C33.6,40.6,32.9,41.3,32,41.3z M6.9,37.9h23.3V4.6H6.9V37.9z"/>
		</g>
	</g>
	<g>
		<g>
			<path class="st0" d="M20.2,12.9h-8.3c-1,0-1.7-0.7-1.7-1.7c0-1,0.7-1.7,1.7-1.7h8.3c1,0,1.7,0.7,1.7,1.7S21.3,12.9,20.2,12.9z"/>
		</g>
	</g>
	<g>
		<g>
			<path class="st0" d="M25.3,19.6H11.9c-1,0-1.7-0.7-1.7-1.7s0.7-1.7,1.7-1.7h13.4c1,0,1.7,0.7,1.7,1.7
				C26.9,18.9,26.3,19.6,25.3,19.6z"/>
		</g>
	</g>
	<g>
		<g>
			<path class="st0" d="M21.9,26.3h-10c-1,0-1.7-0.7-1.7-1.7s0.7-1.7,1.7-1.7h10c1,0,1.7,0.7,1.7,1.7C23.6,25.6,23,26.3,21.9,26.3z"
				/>
		</g>
	</g>
	<g>
		<g>
			<path class="st0" d="M25.3,33H11.9c-1,0-1.7-0.7-1.7-1.7c0-1,0.7-1.7,1.7-1.7h13.4c1,0,1.7,0.7,1.7,1.7
				C26.9,32.3,26.3,33,25.3,33z"/>
		</g>
	</g>
</g>
</svg>
