<?xml version="1.0" encoding="utf-8"?>
<!-- Generator: Adobe Illustrator 25.2.1, SVG Export Plug-In . SVG Version: 6.00 Build 0)  -->
<svg version="1.1" id="Capa_1" xmlns="http://www.w3.org/2000/svg" xmlns:xlink="http://www.w3.org/1999/xlink" x="0px" y="0px"
	 viewBox="0 0 38.6 41" style="enable-background:new 0 0 38.6 41;" xml:space="preserve">
<style type="text/css">
	.st0{fill:#092240;}
</style>
<path id="XMLID_322_" class="st0" d="M36.7,15.7l-4.1-4.3c-0.5-0.5-1-0.7-1.6-0.7c-0.7,0-1.2,0.3-1.6,0.7l-1.8,1.9l-8.8-3.9
	c-0.2-4.9-4.1-8.8-9.1-8.8s-9.1,4-9.1,9.1c0,3.6,2.2,6.8,5.2,8.2v17.1c0,0.8,0.2,1.4,0.7,2L8.7,40c0.2,0.3,0.6,0.5,0.9,0.5
	c0.4,0,0.8-0.2,0.9-0.5l2.3-3.2c0.4-0.6,0.7-1.2,0.7-2V33c0-0.5-0.2-0.8-0.7-1.1l-1.9-1.1c-0.1,0-0.1-0.1-0.1-0.2s0-0.2,0.1-0.2
	l1.9-1.1c0.4-0.2,0.7-0.7,0.7-1.1v-1c0-0.5-0.2-0.8-0.7-1.1l-1.9-1.1c-0.1,0-0.1-0.1-0.1-0.2c0-0.1,0-0.2,0.1-0.2l1.9-1.1
	c0.4-0.2,0.7-0.7,0.7-1.1v-4.6c2.3-1.1,4.1-3.2,4.8-5.7l7.2,3.3l-0.4,0.4c-0.9,0.9-1.4,2.2-1.4,3.5v15.9c0,1.1,0.9,2.1,2.1,2.1h10.1
	c1.1,0,2.1-0.9,2.1-2.1V19C38.1,17.8,37.7,16.6,36.7,15.7z M9.7,9.7c-1.8,0-3.2-1.4-3.2-3.2s1.4-3.2,3.2-3.2s3.2,1.4,3.2,3.2l0,0
	l-2.6-1.2C9.6,5,8.8,5.2,8.5,5.9c-0.3,0.7,0,1.4,0.7,1.8l2.5,1.1C11.1,9.4,10.4,9.7,9.7,9.7z M31,18.3c-0.9,0-1.8-0.7-2-1.6l0.7,0.3
	c0.2,0.1,0.4,0.1,0.6,0.1c0.5,0,1-0.3,1.2-0.8c0.3-0.7,0-1.4-0.7-1.8l-0.7-0.3c0.3-0.1,0.6-0.2,0.9-0.2c1.1,0,2.1,0.9,2.1,2.1
	C33.1,17.3,32.1,18.3,31,18.3z"/>
</svg>
