<?xml version="1.0" encoding="utf-8"?>
<!-- Generator: Adobe Illustrator 25.2.1, SVG Export Plug-In . SVG Version: 6.00 Build 0)  -->
<svg version="1.1" id="Layer_1" xmlns="http://www.w3.org/2000/svg" xmlns:xlink="http://www.w3.org/1999/xlink" x="0px" y="0px"
	 viewBox="0 0 45.6 42.4" style="enable-background:new 0 0 45.6 42.4;" xml:space="preserve">
<style type="text/css">
	.st0{fill:#092240;}
</style>
<g>
	<g>
		<g>
			<g>
				<path class="st0" d="M41.8,34.9c0.4,0,0.6-0.3,0.6-0.6V7.8c0-0.2-0.1-0.3-0.2-0.5l-6.1-6.1C36,1.1,35.8,1,35.6,1H10.5
					c-1.1,0-2,0.9-2,2v0.7H3c-0.6,0-0.8,0.7-0.5,1.1l5,5l-5,5c-0.4,0.4-0.1,1.1,0.5,1.1h5.5v23.8c0,1.1,0.9,2,2,2h29.9
					c1.1,0,2-0.9,2-2V37c0-0.4-0.3-0.6-0.6-0.6c-0.4,0-0.6,0.3-0.6,0.6v2.7c0,0.4-0.3,0.7-0.7,0.7H10.6c-0.4,0-0.7-0.3-0.7-0.7V15.9
					H14c0.4,0,0.6-0.3,0.6-0.6s-0.3-0.6-0.6-0.6H4.7L9,10.4c0.2-0.2,0.2-0.7,0-0.9L4.7,5.2h27.7v9.6H16.7c-0.4,0-0.6,0.3-0.6,0.6
					c0,0.4,0.3,0.6,0.6,0.6H33c0.4,0,0.6-0.3,0.6-0.6v-11c0-0.4-0.3-0.6-0.6-0.6H9.9V3.1c0-0.4,0.3-0.7,0.7-0.7h24.5v4.1
					c0,1.1,0.9,2,2,2h4.1v25.9C41.1,34.7,41.4,34.9,41.8,34.9z M37,7.2c-0.4,0-0.7-0.3-0.7-0.7V3.3l3.9,3.9H37z"/>
			</g>
		</g>
		<g>
			<g>
				<path class="st0" d="M18.7,7.2H16c-0.4,0-0.6,0.3-0.6,0.6v4.1c0,0.4,0.3,0.6,0.6,0.6c0.4,0,0.6-0.3,0.6-0.6v-1.4l0,0h2
					c0.4,0,0.6-0.3,0.6-0.6v-2C19.3,7.5,19,7.2,18.7,7.2z M18,9.2h-1.4l0,0V8.4H18V9.2L18,9.2z"/>
			</g>
		</g>
		<g>
			<g>
				<path class="st0" d="M22.1,7.2h-1.4c-0.4,0-0.6,0.3-0.6,0.6v4.1c0,0.4,0.3,0.6,0.6,0.6h2.7c0.4,0,0.6-0.3,0.6-0.6V9.2
					C24.1,8.1,23.2,7.2,22.1,7.2z M22.8,11.3h-1.4V8.4h0.7c0.4,0,0.7,0.3,0.7,0.7V11.3L22.8,11.3z"/>
			</g>
		</g>
		<g>
			<g>
				<path class="st0" d="M28.2,7.2h-2.7c-0.4,0-0.6,0.3-0.6,0.6v4.1c0,0.4,0.3,0.6,0.6,0.6c0.4,0,0.6-0.3,0.6-0.6v-1.4h1.4
					c0.4,0,0.6-0.3,0.6-0.6c0-0.4-0.3-0.6-0.6-0.6h-1.4V8.4h2.1c0.4,0,0.6-0.3,0.6-0.6C28.8,7.5,28.5,7.2,28.2,7.2z"/>
			</g>
		</g>
	</g>
	<g>
		<g>
			<path class="st0" d="M35,18H16c-0.7,0-1.3,0.6-1.3,1.3V37c0,0.7,0.6,1.3,1.3,1.3h19c0.7,0,1.3-0.6,1.3-1.3V19.4
				C36.3,18.6,35.7,18,35,18z M35,37C35,37.1,35,37.1,35,37H15.9l0,0V19.4l0,0h19l0,0L35,37L35,37z"/>
		</g>
	</g>
	<g>
		<g>
			<path class="st0" d="M32.9,26.2h-6.8c-0.4,0-0.6,0.3-0.6,0.6V35c0,0.4,0.3,0.6,0.6,0.6h6.8c0.4,0,0.6-0.3,0.6-0.6v-8.2
				C33.6,26.5,33.3,26.2,32.9,26.2z M32.3,34.4h-5.5v-6.9h5.5V34.4z"/>
		</g>
	</g>
	<g>
		<g>
			<path class="st0" d="M33.6,20.8h-7.5c-0.4,0-0.6,0.3-0.6,0.6c0,0.4,0.3,0.6,0.6,0.6h7.5c0.4,0,0.6-0.3,0.6-0.6
				C34.2,21,34,20.8,33.6,20.8z"/>
		</g>
	</g>
	<g>
		<g>
			<path class="st0" d="M33.6,23.5h-7.5c-0.4,0-0.6,0.3-0.6,0.6c0,0.4,0.3,0.6,0.6,0.6h7.5c0.4,0,0.6-0.3,0.6-0.6
				C34.2,23.8,34,23.5,33.6,23.5z"/>
		</g>
	</g>
	<g>
		<g>
			<path class="st0" d="M24.1,20.8h-6.8c-0.4,0-0.6,0.3-0.6,0.6c0,0.4,0.3,0.6,0.6,0.6h6.8c0.4,0,0.6-0.3,0.6-0.6
				C24.7,21,24.4,20.8,24.1,20.8z"/>
		</g>
	</g>
	<g>
		<g>
			<path class="st0" d="M24.1,23.5h-6.8c-0.4,0-0.6,0.3-0.6,0.6c0,0.4,0.3,0.6,0.6,0.6h6.8c0.4,0,0.6-0.3,0.6-0.6
				C24.7,23.8,24.4,23.5,24.1,23.5z"/>
		</g>
	</g>
	<g>
		<g>
			<path class="st0" d="M24.1,26.2h-6.8c-0.4,0-0.6,0.3-0.6,0.6c0,0.4,0.3,0.6,0.6,0.6h6.8c0.4,0,0.6-0.3,0.6-0.6
				C24.7,26.5,24.4,26.2,24.1,26.2z"/>
		</g>
	</g>
	<g>
		<g>
			<path class="st0" d="M24.1,28.9h-6.8c-0.4,0-0.6,0.3-0.6,0.6s0.3,0.6,0.6,0.6h6.8c0.4,0,0.6-0.3,0.6-0.6S24.4,28.9,24.1,28.9z"/>
		</g>
	</g>
	<g>
		<g>
			<path class="st0" d="M24.1,31.6h-6.8c-0.4,0-0.6,0.3-0.6,0.6c0,0.4,0.3,0.6,0.6,0.6h6.8c0.4,0,0.6-0.3,0.6-0.6
				C24.7,31.9,24.4,31.6,24.1,31.6z"/>
		</g>
	</g>
	<g>
		<g>
			<path class="st0" d="M24.1,34.4h-6.8c-0.4,0-0.6,0.3-0.6,0.6c0,0.4,0.3,0.6,0.6,0.6h6.8c0.4,0,0.6-0.3,0.6-0.6
				C24.7,34.6,24.4,34.4,24.1,34.4z"/>
		</g>
	</g>
</g>
</svg>
