<?xml version="1.0" encoding="utf-8"?>
<!-- Generator: Adobe Illustrator 25.2.1, SVG Export Plug-In . SVG Version: 6.00 Build 0)  -->
<svg version="1.1" id="Capa_1" xmlns="http://www.w3.org/2000/svg" xmlns:xlink="http://www.w3.org/1999/xlink" x="0px" y="0px"
	 viewBox="0 0 50 41.3" style="enable-background:new 0 0 50 41.3;" xml:space="preserve">
<style type="text/css">
	.st0{fill:#092240;}
</style>
<g>
	<g id="c14_house">
		<path class="st0" d="M8.5,39.7c0,0,0,1,0.9,1c1.2,0,11.4,0,11.4,0v-9.4c0,0-0.1-1.6,1.4-1.6h4.7c1.8,0,1.7,1.6,1.7,1.6v9.3
			c0,0,9.6,0,11.2,0c1.2,0,1.2-1.2,1.2-1.2V22.2L25.2,8.3L8.5,22.2V39.7z"/>
		<path class="st0" d="M2.4,20.9c0,0,1.5,2.6,4.5,0L25.3,5.3l17.3,15.5c3.6,2.6,5,0,5,0L25.3,0.7L2.4,20.9z"/>
		<polygon class="st0" points="42.3,5.2 37.8,5.2 37.9,10.6 42.3,14.4 		"/>
	</g>
	<g id="Capa_1_216_">
	</g>
</g>
</svg>
