<?xml version="1.0" encoding="utf-8"?>
<!-- Generator: Adobe Illustrator 25.2.1, SVG Export Plug-In . SVG Version: 6.00 Build 0)  -->
<svg version="1.1" id="Capa_1" xmlns="http://www.w3.org/2000/svg" xmlns:xlink="http://www.w3.org/1999/xlink" x="0px" y="0px"
	 viewBox="0 0 48.2 41.5" style="enable-background:new 0 0 48.2 41.5;" xml:space="preserve">
<style type="text/css">
	.st0{fill:#092240;}
</style>
<g>
	<g>
		<g>
			<path class="st0" d="M38.1,0.9H8.8C8.1,0.9,7.6,1.3,7.6,2v37.8c0,0.6,0.5,1.1,1.1,1.1h29.3c0.6,0,1.1-0.5,1.1-1.1V2
				C39.2,1.3,38.7,0.9,38.1,0.9z M15.3,37.5c0,0.1-0.1,0.2-0.2,0.2h-3.4c-0.1,0-0.2-0.1-0.2-0.2v-3.4c0-0.1,0.1-0.2,0.2-0.2h3.4
				c0.1,0,0.2,0.1,0.2,0.2C15.3,34.2,15.3,37.5,15.3,37.5z M15.3,30.3c0,0.1-0.1,0.2-0.2,0.2h-3.4c-0.1,0-0.2-0.1-0.2-0.2v-3.4
				c0-0.1,0.1-0.2,0.2-0.2h3.4c0.1,0,0.2,0.1,0.2,0.2V30.3z M15.3,22.9c0,0.1-0.1,0.2-0.2,0.2h-3.4c-0.1,0-0.2-0.1-0.2-0.2v-3.4
				c0-0.1,0.1-0.2,0.2-0.2h3.4c0.1,0,0.2,0.1,0.2,0.2V22.9z M21.8,37.5c0,0.1-0.1,0.2-0.2,0.2h-3.4c-0.1,0-0.2-0.1-0.2-0.2v-3.4
				c0-0.1,0.1-0.2,0.2-0.2h3.4c0.1,0,0.2,0.1,0.2,0.2V37.5z M21.8,30.3c0,0.1-0.1,0.2-0.2,0.2h-3.4c-0.1,0-0.2-0.1-0.2-0.2v-3.4
				c0-0.1,0.1-0.2,0.2-0.2h3.4c0.1,0,0.2,0.1,0.2,0.2V30.3z M21.8,22.9c0,0.1-0.1,0.2-0.2,0.2h-3.4c-0.1,0-0.2-0.1-0.2-0.2v-3.4
				c0-0.1,0.1-0.2,0.2-0.2h3.4c0.1,0,0.2,0.1,0.2,0.2V22.9z M28.5,37.5c0,0.1-0.1,0.2-0.2,0.2h-3.4c-0.1,0-0.2-0.1-0.2-0.2v-3.4
				c0-0.1,0.1-0.2,0.2-0.2h3.4c0.1,0,0.2,0.1,0.2,0.2V37.5z M28.5,30.3c0,0.1-0.1,0.2-0.2,0.2h-3.4c-0.1,0-0.2-0.1-0.2-0.2v-3.4
				c0-0.1,0.1-0.2,0.2-0.2h3.4c0.1,0,0.2,0.1,0.2,0.2V30.3z M28.5,22.9c0,0.1-0.1,0.2-0.2,0.2h-3.4c-0.1,0-0.2-0.1-0.2-0.2v-3.4
				c0-0.1,0.1-0.2,0.2-0.2h3.4c0.1,0,0.2,0.1,0.2,0.2V22.9z M35.1,37.5c0,0.1-0.1,0.2-0.2,0.2h-3.4c-0.1,0-0.2-0.1-0.2-0.2v-3.4
				c0-0.1,0.1-0.2,0.2-0.2h3.4c0.1,0,0.2,0.1,0.2,0.2V37.5z M35.2,30.3c0,0.1-0.1,0.2-0.2,0.2h-3.3c-0.1,0-0.2-0.1-0.2-0.2V19.6
				c0-0.1,0.1-0.2,0.2-0.2h3.4c0.1,0,0.2,0.1,0.2,0.2L35.2,30.3L35.2,30.3z M35.7,15.7c0,0.3-0.2,0.6-0.6,0.6H11.7
				c-0.3,0-0.6-0.2-0.6-0.6V5.4c0-0.3,0.2-0.6,0.6-0.6h23.5c0.3,0,0.6,0.2,0.6,0.6V15.7L35.7,15.7z"/>
			<path class="st0" d="M31.5,6.5c-1.1,0-2,0.9-2,2c0,0.1,0,0.2,0,0.3l-4.6,2.7c-0.4-0.4-0.9-0.6-1.4-0.6c-0.7,0-1.3,0.4-1.7,0.9
				l-4.6-1.8c0-0.1,0-0.2,0-0.2c0-1.1-0.9-2-2-2s-2,0.9-2,2s0.9,2,2,2c0.6,0,1-0.2,1.4-0.6l4.8,1.9c0.2,0.9,0.9,1.7,2,1.7
				c1.1,0,2-0.9,2-2c0-0.1,0-0.1,0-0.2l4.7-2.7c0.3,0.3,0.8,0.5,1.3,0.5c1.1,0,2-0.9,2-2C33.4,7.4,32.5,6.5,31.5,6.5z M15.4,10.4
				c-0.3,0-0.6-0.3-0.6-0.6c0-0.3,0.3-0.6,0.6-0.6c0.3,0,0.6,0.3,0.6,0.6C16,10.2,15.8,10.4,15.4,10.4z M23.5,13.5
				c-0.3,0-0.6-0.3-0.6-0.6c0-0.3,0.3-0.6,0.6-0.6c0.3,0,0.6,0.3,0.6,0.6C24.2,13.2,23.9,13.5,23.5,13.5z M31.5,9.1
				c-0.3,0-0.6-0.3-0.6-0.6c0-0.3,0.3-0.6,0.6-0.6c0.3,0,0.6,0.3,0.6,0.6S31.8,9.1,31.5,9.1z"/>
		</g>
	</g>
</g>
</svg>
