<?xml version="1.0" encoding="utf-8"?>
<!-- Generator: Adobe Illustrator 25.2.1, SVG Export Plug-In . SVG Version: 6.00 Build 0)  -->
<svg version="1.1" id="Layer_1" xmlns="http://www.w3.org/2000/svg" xmlns:xlink="http://www.w3.org/1999/xlink" x="0px" y="0px"
	 viewBox="0 0 42.4 42.7" style="enable-background:new 0 0 42.4 42.7;" xml:space="preserve">
<style type="text/css">
	.st0{fill:#092240;}
</style>
<g>
	<path id="path2376_2_" class="st0" d="M32.4,32.4c-1.6,0-3-0.6-4.2-1.7l-6-6c-0.4-0.4-1.2-0.4-1.6,0l-6,6c-1.1,1.1-2.6,1.7-4.2,1.7
		H9.2l7.6,7.6c2.4,2.4,6.2,2.4,8.6,0l7.6-7.6H32.4L32.4,32.4z"/>
	<path id="path2380_2_" class="st0" d="M10.5,11.2c1.6,0,3,0.6,4.2,1.7l6,6c0.4,0.4,1.1,0.4,1.6,0l6-6c1.1-1.1,2.6-1.7,4.2-1.7h0.7
		l-7.6-7.6c-2.4-2.4-6.2-2.4-8.6,0l-7.6,7.6H10.5L10.5,11.2z"/>
	<path id="path2384_2_" class="st0" d="M39.4,17.5l-4.6-4.6c-0.1,0-0.2,0.1-0.3,0.1h-2.1c-1.1,0-2.2,0.4-2.9,1.2l-6,6
		c-0.6,0.6-1.3,0.8-2,0.8s-1.5-0.3-2-0.8l-6-6c-0.8-0.8-1.8-1.2-2.9-1.2H8c-0.1,0-0.2,0-0.3-0.1l-4.6,4.6c-2.4,2.4-2.4,6.2,0,8.6
		l4.6,4.6c0.1,0,0.2-0.1,0.3-0.1h2.6c1.1,0,2.2-0.4,2.9-1.2l6-6c1.1-1.1,3-1.1,4.1,0l6,6c0.8,0.8,1.8,1.2,2.9,1.2h2.1
		c0.1,0,0.2,0,0.3,0.1l4.6-4.6C41.8,23.7,41.8,19.9,39.4,17.5"/>
</g>
</svg>
