<?xml version="1.0" encoding="utf-8"?>
<!-- Generator: Adobe Illustrator 25.2.1, SVG Export Plug-In . SVG Version: 6.00 Build 0)  -->
<svg version="1.1" id="Camada_1" xmlns="http://www.w3.org/2000/svg" xmlns:xlink="http://www.w3.org/1999/xlink" x="0px" y="0px"
	 viewBox="0 0 42.2 41" style="enable-background:new 0 0 42.2 41;" xml:space="preserve">
<style type="text/css">
	.st0{fill:#092240;}
</style>
<g>
	<g>
		<path class="st0" d="M6.6,32.8C6.9,33,8,33.5,8.9,32.4l6.3-9.2l6.7,6.4c0.4,0.3,0.8,0.5,1.3,0.5s0.9-0.3,1.2-0.7l11.1-15.9
			l0.4,5.3c0.1,1.3,1.4,1.6,1.8,1.5c0.9-0.1,1.6-0.9,1.5-1.8l-0.7-9.3c-0.1-0.9-0.9-1.6-1.8-1.5l-9.3,0.7c-0.9,0.1-1.6,0.9-1.5,1.8
			c0.1,0.9,0.9,1.6,1.8,1.5l5.3-0.4L22.9,25.8l-6.7-6.4c-0.4-0.3-0.8-0.5-1.3-0.5s-0.9,0.3-1.2,0.7L6.3,30.4
			C5.7,31.3,5.9,32.3,6.6,32.8L6.6,32.8z"/>
		<path class="st0" d="M39.3,37.3h-35v-35c0-0.9-0.7-1.7-1.7-1.7c-0.9,0-1.7,0.7-1.7,1.7V39c0,0.9,0.7,1.7,1.7,1.7h36.7
			c0.9,0,1.7-0.7,1.7-1.7S40.3,37.3,39.3,37.3z"/>
	</g>
</g>
</svg>
