<?xml version="1.0" encoding="utf-8"?>
<!-- Generator: Adobe Illustrator 25.2.1, SVG Export Plug-In . SVG Version: 6.00 Build 0)  -->
<svg version="1.1" id="Capa_1" xmlns="http://www.w3.org/2000/svg" xmlns:xlink="http://www.w3.org/1999/xlink" x="0px" y="0px"
	 viewBox="0 0 38.9 40.8" style="enable-background:new 0 0 38.9 40.8;" xml:space="preserve">
<style type="text/css">
	.st0{fill:#092240;}
</style>
<g>
	<g>
		<path class="st0" d="M25.7,12.2v5.4h-14v-5.4c-1.2,0.2-2.2,1.2-2.2,2.6v23.1c0,1.4,1.1,2.6,2.6,2.6h13.2c1.4,0,2.6-1.1,2.6-2.6
			V14.8C27.9,13.4,26.9,12.4,25.7,12.2z M15.8,37.9h-2.5v-2.5h2.5V37.9z M15.8,33.4h-2.5V31h2.5V33.4z M15.8,29.2h-2.5v-2.5h2.5
			V29.2z M19.9,37.9h-2.5v-2.5h2.5V37.9z M19.9,33.4h-2.5V31h2.5V33.4z M19.9,29.2h-2.5v-2.5h2.5V29.2z M24.1,37.9h-2.5v-2.5h2.5
			V37.9z M24.1,33.4h-2.5V31h2.5V33.4z M24.1,29.2h-2.5v-2.5h2.5V29.2z M25.6,25.2h-14v-5.6h13.9L25.6,25.2L25.6,25.2z"/>
		<path class="st0" d="M19.6,0.8c0-0.1,0-0.2,0-0.3h-5.4c-0.7,0-1.3,0.6-1.3,1.3v14.8h6.7L19.6,0.8L19.6,0.8z"/>
		<path class="st0" d="M22.3,16.6h2.2V1.8c0-0.7-0.6-1.3-1.3-1.3h-1c0,0.1,0,0.2,0,0.3V16.6L22.3,16.6z"/>
	</g>
</g>
</svg>
