<?xml version="1.0" encoding="utf-8"?>
<!-- Generator: Adobe Illustrator 25.2.1, SVG Export Plug-In . SVG Version: 6.00 Build 0)  -->
<svg version="1.1" id="Capa_1" xmlns="http://www.w3.org/2000/svg" xmlns:xlink="http://www.w3.org/1999/xlink" x="0px" y="0px"
	 viewBox="0 0 50.8 40.4" style="enable-background:new 0 0 50.8 40.4;" xml:space="preserve">
<style type="text/css">
	.st0{fill:#092240;}
</style>
<g>
	<path class="st0" d="M36.6,21.3c-1,0.5-2.5,0.5-3.5,0c-1-0.5-1-1.5,0-2c1-0.5,2.5-0.5,3.5,0C37.6,19.9,37.6,20.8,36.6,21.3z
		 M18.2,8.7c-1-0.5-2.5-0.5-3.5,0c-1,0.5-1,1.5,0,2c1,0.5,2.5,0.5,3.5,0S19.2,9.3,18.2,8.7z M49.7,20.3L35,28.8
		c-1.6,0.9-4.2,0.9-5.8,0L1.7,12.9C0,12.1,0,10.5,1.7,9.7l14.8-8.6c1.6-0.9,4.2-0.9,5.8,0L49.7,17C51.2,17.9,51.2,19.4,49.7,20.3z
		 M44.2,20.6c-0.3-0.1-0.5-0.3-0.8-0.4c-1.6-0.9-1.6-2.4,0-3.4c0.3-0.1,0.5-0.3,0.8-0.4L22.7,4.1c-0.1,0.1-0.3,0.3-0.5,0.4
		c-1.6,0.9-4.2,0.9-5.8,0c-0.1-0.1-0.4-0.3-0.5-0.4L7.1,9.3c0.3,0.1,0.4,0.1,0.5,0.3c1.6,0.9,1.6,2.4,0,3.4
		c-0.1,0.1-0.4,0.3-0.6,0.3l21.3,12.4c0.1-0.1,0.3-0.1,0.4-0.3c1.6-0.9,4.2-0.9,5.8,0c0.3,0.1,0.5,0.3,0.6,0.5L44.2,20.6z M0.9,17.6
		l28.7,16.6l0.4,0.3l0.6,0.4c0.8,0.5,2.1,0.5,2.9,0l16.5-9.6c0.6-0.4,0.6-1,0-1.4c-0.6-0.4-1.8-0.4-2.4,0L32.2,33L3.4,16.3
		C2.8,16,1.7,15.8,1,16.2C0.3,16.6,0.3,17.2,0.9,17.6z M50.2,29c-0.6-0.4-1.8-0.4-2.4,0L32.3,38L3.6,21.4c-0.6-0.4-1.8-0.5-2.4-0.1
		c-0.8,0.4-0.8,1,0,1.5l28.7,16.6l0.4,0.3l0.6,0.4c0.8,0.5,2.1,0.5,2.9,0l16.5-9.6C50.8,30,50.8,29.3,50.2,29z M31.9,18.6
		c-3.4,2-9.1,2-12.5,0c-3.5-2-3.5-5.3,0-7.3c3.4-2,9.1-2,12.5,0C35.5,13.3,35.5,16.6,31.9,18.6z M31.1,14.5L31.1,14.5
		c-0.4-0.5-0.8-0.9-1.4-1.3c-0.3-0.1-0.4-0.3-0.6-0.4c-0.6-0.3-1.3-0.5-2-0.5c-1-0.1-1.9,0-2.8,0.3h-0.1l-0.8-0.5
		c-0.1-0.1-0.4-0.1-0.4,0l-0.5,0.3c-0.1,0.1-0.1,0.1,0,0.3l0.6,0.4c-0.1,0.1-0.3,0.1-0.4,0.3l-0.6-0.4c-0.1-0.1-0.4-0.1-0.4,0
		l-0.5,0.3c-0.1,0.1-0.1,0.1,0,0.3l0.8,0.4c-0.1,0.1-0.3,0.3-0.4,0.4c-0.5,0.8-0.5,1.4,0.1,2.1c0.3,0.3,0.6,0.5,1,0.8
		c0.4,0.3,0.8,0.4,1.3,0.5c0.3,0.1,0.5,0.1,0.8,0.3c0.3,0,0.5,0,0.5-0.1c0.1-0.1,0.3-0.4,0.4-0.5c0.1-0.1,0-0.1,0-0.3h-0.1
		c-0.3-0.1-0.6-0.3-0.9-0.3c-0.3-0.1-0.5-0.3-0.8-0.4c-0.3-0.1-0.5-0.3-0.6-0.5c-0.4-0.4-0.3-0.9,0-1.3l1.5,0.9
		c0.1,0.1,0.4,0.1,0.4,0l0.5-0.3c0.1-0.1,0.1-0.1,0-0.3l-1.6-1c0.1-0.1,0.3-0.1,0.4-0.3l1.6,1c0.1,0.1,0.4,0.1,0.4,0l0.5-0.3
		c0.1-0.1,0.1-0.1,0-0.3l-1.5-0.9l0,0c0.6-0.1,1.1-0.1,1.8,0c0.4,0.1,0.8,0.3,1,0.4c0.3,0.1,0.4,0.3,0.6,0.4
		c0.3,0.1,0.4,0.4,0.5,0.5c0,0,0,0,0.1,0c0.1,0.1,0.3,0.1,0.5,0c0.3,0,0.5-0.1,0.8-0.3C31.1,14.7,31.2,14.6,31.1,14.5z"/>
</g>
</svg>
