<?xml version="1.0" encoding="utf-8"?>
<!-- Generator: Adobe Illustrator 25.2.1, SVG Export Plug-In . SVG Version: 6.00 Build 0)  -->
<svg version="1.1" id="Camada_1" xmlns="http://www.w3.org/2000/svg" xmlns:xlink="http://www.w3.org/1999/xlink" x="0px" y="0px"
	 viewBox="0 0 37.6 40.9" style="enable-background:new 0 0 37.6 40.9;" xml:space="preserve">
<style type="text/css">
	.st0{fill:#092240;}
</style>
<g>
	<path class="st0" d="M34.9,14.4c-1.6-2.7-3.7-4.8-6.4-6.3c-2.4-1.4-4.9-2.1-7.7-2.3v7.8c2.2,0.2,4,1.1,5.5,2.7
		c1.6,1.7,2.6,4,2.6,6.9s-0.8,5.1-2.6,7c-1.7,1.8-3.8,2.7-6.5,2.7c-2.4,0-4.4-0.7-5.9-2.2L8.3,36c3.2,2.9,7,4.4,11.4,4.4
		c3.2,0,6.1-0.7,8.8-2.3c2.7-1.6,4.9-3.7,6.4-6.4c1.5-2.6,2.3-5.6,2.3-8.5C37.2,20,36.4,17.1,34.9,14.4z"/>
	<g>
		<path class="st0" d="M13.6,15.9c1.5-1.4,3.1-2.2,5.1-2.4V0.4c-5.1,0.4-10,2.8-13.4,7.2L13.6,15.9z"/>
		<path class="st0" d="M10.8,22.3c0.1-1.8,0.6-3.5,1.6-4.9L4,9.1c-2.8,4-3.9,9.2-3.4,13.2H10.8L10.8,22.3z"/>
		<path class="st0" d="M10.8,24.2H0.6c0.7,4.7,3.4,8.1,6.1,10.3l5.6-5.6C11.5,27.7,11,26,10.8,24.2z"/>
	</g>
</g>
</svg>
