<?xml version="1.0" encoding="utf-8"?>
<!-- Generator: Adobe Illustrator 25.2.1, SVG Export Plug-In . SVG Version: 6.00 Build 0)  -->
<svg version="1.1" id="Layer_1" xmlns="http://www.w3.org/2000/svg" xmlns:xlink="http://www.w3.org/1999/xlink" x="0px" y="0px"
	 viewBox="0 0 40 40" style="enable-background:new 0 0 40 40;" xml:space="preserve">
<style type="text/css">
	.st0{fill:#092240;}
</style>
<g>
	<g>
		<g>
			<path class="st0" d="M1.8,10c0.9,0,1.7-0.7,1.7-1.7v-5h5c0.9,0,1.7-0.7,1.7-1.7C10.1,0.8,9.5,0,8.5,0H1.8C0.9,0,0.1,0.7,0.1,1.7
				v6.7C0.2,9.3,0.9,10,1.8,10z"/>
			<path class="st0" d="M38.3,0.1h-6.7c-0.9,0-1.7,0.7-1.7,1.7c0,0.9,0.7,1.7,1.7,1.7h5v5c0,0.9,0.7,1.7,1.7,1.7
				c0.9,0,1.7-0.7,1.7-1.7V1.8C40,0.8,39.2,0.1,38.3,0.1z"/>
			<path class="st0" d="M38.3,30c-0.9,0-1.7,0.7-1.7,1.7v5h-5c-0.9,0-1.7,0.7-1.7,1.7c0,0.9,0.7,1.7,1.7,1.7h6.7
				c0.9,0,1.7-0.7,1.7-1.7v-6.7C40,30.6,39.2,30,38.3,30z"/>
			<path class="st0" d="M8.5,36.5h-5v-5c0-0.9-0.7-1.7-1.7-1.7c-0.9,0-1.7,0.7-1.7,1.7v6.7c0,0.9,0.7,1.7,1.7,1.7h6.7
				c0.9,0,1.7-0.7,1.7-1.7C10.1,37.2,9.4,36.5,8.5,36.5z"/>
			<path class="st0" d="M38.3,16.6H35V10c0-0.9-0.7-1.7-1.7-1.7c-0.9,0-1.7,0.7-1.7,1.7v6.7h-3.3V10c0-0.9-0.7-1.7-1.7-1.7
				C25.8,8.3,25,9,25,10v6.7h-3.3V10c0-0.9-0.7-1.7-1.7-1.7S18.3,9,18.3,10v6.7H15V10c0-0.9-0.7-1.7-1.7-1.7c-0.9,0-1.7,0.7-1.7,1.7
				v6.7H8.4V10c0-0.9-0.7-1.7-1.7-1.7C5.8,8.3,5,9,5,10v6.7H1.7c-0.9,0-1.7,0.7-1.7,1.7C0,19.2,0.7,20,1.7,20H5v10
				c0,0.9,0.7,1.7,1.7,1.7c0.9,0,1.7-0.7,1.7-1.7V20h3.3v6.7c0,0.9,0.7,1.7,1.7,1.7s1.7-0.7,1.7-1.7V20h3.3v3.3
				c0,0.9,0.7,1.7,1.7,1.7c0.9,0,1.7-0.7,1.7-1.7V20H25v6.7c0,0.9,0.7,1.7,1.7,1.7c0.9,0,1.7-0.7,1.7-1.7V20h3.3v10
				c0,0.9,0.7,1.7,1.7,1.7c0.9,0,1.7-0.7,1.7-1.7V20h3.3c0.9,0,1.7-0.7,1.7-1.7C40,17.3,39.2,16.6,38.3,16.6z"/>
		</g>
	</g>
</g>
</svg>
