<?xml version="1.0" encoding="utf-8"?>
<!-- Generator: Adobe Illustrator 25.2.1, SVG Export Plug-In . SVG Version: 6.00 Build 0)  -->
<svg version="1.1" id="Capa_1" xmlns="http://www.w3.org/2000/svg" xmlns:xlink="http://www.w3.org/1999/xlink" x="0px" y="0px"
	 viewBox="0 0 46.9 40.4" style="enable-background:new 0 0 46.9 40.4;" xml:space="preserve">
<style type="text/css">
	.st0{fill:#092240;}
</style>
<g>
	<g id="Layer_5_77_">
		<path class="st0" d="M43,1.2c-1.9-1.7-5.2-0.3-6.8,1.2c0,0-3.6,3.4-5.1,4.7c-0.4,0.3-0.7,0.2-0.7,0.2L14,4.4
			c-0.7-0.1-1.8,0.2-2.3,0.7l-1.5,1.5c-0.5,0.5-0.4,1.2,0.2,1.5l12.1,6.3c0,0,0.9,0.5,0.4,1c-2,1.9-5.4,5.3-7.3,7.2
			c-0.6,0.6-1.4,0.5-1.4,0.5l-5.6-0.7c-0.7-0.1-1.7,0.3-2.2,0.8l-2.5,2.5c-0.5,0.5-0.4,1.2,0.2,1.6l9.3,2.2c0.6,0.4,0.8,0.5,1.1,1.1
			l2.1,9.2c0.4,0.6,1.1,0.7,1.6,0.2l2.5-2.5c0.5-0.5,0.9-1.5,0.8-2.2l-0.7-5.4c0,0-0.1-0.7,0.3-1.1c1.9-1.9,5.5-5.5,7.6-7.5
			c0.6-0.6,0.9,0.2,0.9,0.2l6.2,12.1c0.3,0.6,1,0.7,1.5,0.2l1.5-1.5c0.5-0.5,0.8-1.5,0.7-2.2l-2.8-16c0,0-0.1-0.6,0.2-0.9
			c1.2-1.3,4.8-5.2,4.8-5.2C43.6,6.5,45.1,3,43,1.2z"/>
	</g>
</g>
</svg>
