<?xml version="1.0" encoding="utf-8"?>
<!-- Generator: Adobe Illustrator 25.2.1, SVG Export Plug-In . SVG Version: 6.00 Build 0)  -->
<svg version="1.1" id="Capa_1" xmlns="http://www.w3.org/2000/svg" xmlns:xlink="http://www.w3.org/1999/xlink" x="0px" y="0px"
	 viewBox="0 0 49 47.4" style="enable-background:new 0 0 49 47.4;" xml:space="preserve">
<style type="text/css">
	.st0{fill:#092240;}
</style>
<path class="st0" d="M45.7,36.6l-6.4-8.7c-1.4-2-3.5-3.2-5.8-3.6c1.4-2.2,2.3-4.8,2.3-7.5c0-7.5-6-13.5-13.5-13.5S8.8,9.4,8.8,16.8
	c0,2.6,0.8,5.2,2.2,7.4c1.2,1.9,3,3.4,4.9,4.5c0.3,1.4,1.6,2.6,3.3,2.6l8,0.2c0.2,0,0.3,0.1,0.4,0.2c0.1,0.1,0.1,0.2,0.1,0.4
	c0,0.3-0.2,0.5-0.5,0.5l0,0L18,32.7c-0.5,0-1-0.2-1.4-0.5l-8.2-6.7c-1.5-1.3-3.8-1.1-5.3,0.3c-0.7,0.8-1.1,1.8-1,2.7
	c0,1,0.4,2,1.2,2.6l10.4,9.7c1.3,1.2,3,1.9,4.7,2L34,43.3l0,0c0.8,0,1.3-0.5,1.3-1.3s-0.5-1.4-1.3-1.4L18.5,40c-1.1,0-2.2-0.4-3-1.2
	L5.1,29.1c-0.2-0.2-0.3-0.4-0.3-0.8s0.1-0.5,0.3-0.8c0.4-0.4,1.1-0.4,1.5-0.1l8.2,6.7c0.9,0.8,2,1.1,3.1,1.1l9.2,0.1l0,0
	c1.6,0,3.1-1.3,3.3-3c0.1-0.9-0.2-1.9-0.8-2.5c-0.7-0.7-1.4-1.1-2.4-1.1l-8-0.2c-0.3,0-0.7-0.3-0.7-0.7c0-0.2,0.1-0.4,0.2-0.5
	c0.1-0.1,0.2-0.2,0.5-0.2l12.9-0.2c0.1,0,0.1,0,0.2,0c1.9,0,3.7,1,4.8,2.5l6.4,8.7c0.4,0.7,1.3,0.8,1.9,0.3
	C46.1,38.1,46.2,37.3,45.7,36.6z M19.1,24.4c-1,0-1.9,0.4-2.5,1.1c-0.1,0.1-0.2,0.2-0.2,0.3c-1.2-0.8-2.3-1.9-3.2-3.2
	c-1.1-1.8-1.8-3.7-1.8-5.8c0-5.9,4.8-10.8,10.8-10.8c5.9,0,10.8,4.8,10.8,10.8c0,2.9-1.1,5.4-3,7.5l-6.8,0.1v-0.5
	c1.8-0.4,3.1-2,3.1-4c0-1.9-1.3-3.5-3.1-4v-4.3c0.8,0.3,1.3,1.1,1.3,2c0,0.5,0.4,0.9,0.9,0.9c0.5,0,0.9-0.4,0.9-0.9
	c0-1.9-1.3-3.5-3.1-4V9c0-0.5-0.4-0.9-0.9-0.9c-0.4,0-0.9,0.4-0.9,0.9v0.7c-1.8,0.4-3.1,2-3.1,4c0,1.9,1.3,3.5,3.1,4v4.3
	c-0.8-0.3-1.3-1.1-1.3-2c0-0.5-0.4-0.9-0.9-0.9s-0.9,0.4-0.9,0.9c0,1.9,1.3,3.5,3.1,4v0.5H19.1z M21.3,15.7c-0.8-0.3-1.3-1.1-1.3-2
	s0.5-1.6,1.3-2V15.7z M23.2,17.9c0.8,0.3,1.3,1.1,1.3,2s-0.5,1.6-1.3,2V17.9z"/>
</svg>
