<?xml version="1.0" encoding="utf-8"?>
<!-- Generator: Adobe Illustrator 25.2.1, SVG Export Plug-In . SVG Version: 6.00 Build 0)  -->
<svg version="1.1" id="Layer_1" xmlns="http://www.w3.org/2000/svg" xmlns:xlink="http://www.w3.org/1999/xlink" x="0px" y="0px"
	 viewBox="0 0 40.9 42.6" style="enable-background:new 0 0 40.9 42.6;" xml:space="preserve">
<style type="text/css">
	.st0{fill:#092240;stroke:#092240;stroke-width:0.5;stroke-miterlimit:10;}
</style>
<g>
	<path class="st0" d="M12.6,26.1c1.7,0,3.1-1.4,3.1-3.1c0-1.7-1.4-3.1-3.1-3.1S9.5,21.2,9.5,23C9.5,24.7,11,26.1,12.6,26.1z
		 M12.6,21.1c1.1,0,1.9,0.9,1.9,1.9c0,1.1-0.9,1.9-1.9,1.9S10.7,24,10.7,23C10.7,21.9,11.5,21.1,12.6,21.1z"/>
	<path class="st0" d="M1.9,31l3.5-0.2c0.5,1.4,1.3,2.6,2.1,3.8l-1.6,4.5c-0.2,0.5-0.1,1,0.2,1.4c0.3,0.4,0.7,0.6,1.2,0.6h3.1
		c0.6,0,1.2-0.4,1.4-1l0.6-1.5c2,1.1,4.3,1.5,6.5,1.5c2.2,0,4.4-0.6,6.5-1.5l0.6,1.5c0.2,0.6,0.8,1,1.4,1h3.1c0.5,0,0.9-0.2,1.2-0.6
		c0.3-0.4,0.3-0.9,0.2-1.4l-1.6-4.5c1.3-1.6,2.1-3.5,2.6-5.5c1.4,0,2.7-1.3,2.7-2.7s-1.1-2.6-2.5-2.7c-0.3-1.9-1.1-3.9-2.1-5.5
		c4.3-0.5,7.5-4.2,7.5-8.5c0-4.7-3.9-8.6-8.6-8.6s-8.6,3.9-8.6,8.6c0,0.8,0.1,1.5,0.3,2.3c-0.9-0.2-1.7-0.2-2.6-0.2
		c-1.3,0-2.4,0.2-3.7,0.5c-2-1.5-4.5-2.1-7.1-1.6c-2,0.4-3.5,1.3-3.5,1.3C4.1,12,4,12.2,4,12.3c0,0.2,0,0.4,0.2,0.5L8,16.5
		c-1.2,1.4-2.1,2.9-2.7,4.5l-3.5-0.2c-0.2,0-0.3,0.1-0.5,0.2c-0.1,0.1-0.2,0.3-0.2,0.4v9c0,0.2,0.1,0.3,0.2,0.4
		C1.6,30.9,1.8,31,1.9,31z M34.2,26.4c0,0.8-0.6,1.4-1.3,1.5v-0.1c0-0.1,0-0.2,0-0.3c0-0.1,0-0.1,0-0.2s0-0.3,0-0.4v-0.1
		c0-0.1,0-0.2,0-0.4c0-0.1,0-0.1,0-0.2s0-0.3,0-0.4c0,0,0,0,0-0.1v-0.1c0-0.1,0-0.2,0-0.4c0-0.1,0-0.1,0-0.2s0-0.2,0-0.3v-0.1
		C33.6,25.1,34.2,25.7,34.2,26.4z M29.6,2.2c4.1,0,7.4,3.3,7.4,7.4c0,4.1-3.2,7.3-7.2,7.4c-0.1-0.1-0.1-0.1-0.2-0.2l-0.1-0.1
		l-0.1-0.1l-0.1-0.1l-0.1-0.1l-0.1-0.1L29,16.3l-0.1-0.1l-0.1-0.1L28.7,16l-0.1-0.1l-0.1-0.1l-0.1-0.1c0.4,0.1,0.8,0.1,1.2,0.1
		c3.4,0,6.1-2.7,6.1-6.1S33,3.7,29.6,3.7s-6.1,2.7-6.1,6.1c0,1.3,0.4,2.4,1,3.3c0,0-0.1,0-0.1-0.1c0,0-0.1,0-0.1-0.1
		c-0.1,0-0.1,0-0.1-0.1c0,0-0.1,0-0.1-0.1c-0.1,0-0.1,0-0.1-0.1h-0.1c-0.1,0-0.1,0-0.2-0.1h-0.1c-0.1,0-0.1,0-0.2-0.1h-0.1
		c-0.1,0-0.1,0-0.2-0.1H23c-0.1,0-0.2-0.1-0.3-0.1c-0.3-0.9-0.5-1.7-0.5-2.7C22.2,5.5,25.6,2.2,29.6,2.2z M24.7,9.7
		c0-2.7,2.2-4.9,4.9-4.9s4.9,2.2,4.9,4.9s-2.2,4.9-4.9,4.9S24.7,12.4,24.7,9.7z M2.5,22.1l3.3,0.2c0.3,0,0.5-0.2,0.6-0.4
		c0.6-1.8,1.6-3.5,3-4.9c0.2-0.2,0.2-0.6,0-0.9l-3.6-3.6c1.5-0.7,5.4-2,8.8,0.8c0.2,0.1,0.4,0.2,0.6,0.1c1.2-0.3,2.4-0.5,3.6-0.5
		s2.2,0.1,3.4,0.5c0.4,0.1,0.7,0.2,1,0.3c0.2,0.1,0.3,0.1,0.5,0.2c0.1,0,0.2,0.1,0.3,0.1c0.1,0,0.2,0.1,0.3,0.1
		c1.4,0.7,2.7,1.5,3.9,2.7c0.4,0.4,0.8,0.8,1.1,1.3l0,0c1.4,1.8,2.3,4.1,2.6,6.4c0.1,0.5,0.1,1.1,0.1,1.5c0,0.8-0.1,1.6-0.2,2.4l0,0
		c-0.4,2.1-1.4,4.2-2.7,5.8c-0.1,0.2-0.2,0.4-0.1,0.6l1.7,4.8c0,0.1,0,0.2,0,0.3S30.4,40,30.3,40h-3.1c-0.1,0-0.2-0.1-0.3-0.2
		l-0.8-2.2c-0.1-0.2-0.2-0.3-0.4-0.4c-0.1,0-0.1,0-0.2,0c-0.1,0-0.2,0-0.3,0.1C23.3,38.4,21,39,18.8,39s-4.5-0.6-6.5-1.7
		c-0.2-0.1-0.3-0.1-0.5,0c-0.2,0.1-0.3,0.2-0.4,0.4l-0.8,2.2c0,0.1-0.1,0.2-0.3,0.2H7.3c-0.1,0-0.2-0.1-0.2-0.1s-0.1-0.1,0-0.3
		l1.7-4.8c0.1-0.2,0-0.4-0.1-0.6c-1-1.3-1.7-2.6-2.2-4.2c-0.1-0.3-0.3-0.4-0.6-0.4l-3.3,0.2v-7.8H2.5z"/>
	<path class="st0" d="M30.1,12.8v-0.5c1.1-0.1,1.7-0.7,1.7-1.6c0-0.9-0.6-1.4-1.8-1.7V7.3c0.3,0.1,0.6,0.2,0.9,0.4
		c0.1,0.1,0.2,0.1,0.3,0.1c0.3,0,0.5-0.2,0.5-0.5c0-0.2-0.1-0.3-0.3-0.4c-0.4-0.3-0.8-0.4-1.3-0.5V6.3c0-0.2-0.2-0.4-0.4-0.4
		c-0.2,0-0.4,0.2-0.4,0.4v0.2c-1.1,0.1-1.7,0.7-1.7,1.6c0,0.4,0.1,0.7,0.3,1c0.3,0.4,0.8,0.6,1.4,0.8v1.6c-0.5-0.1-0.9-0.3-1.3-0.6
		c-0.1-0.1-0.2-0.1-0.3-0.1c-0.3,0-0.5,0.2-0.5,0.5c0,0.2,0.1,0.3,0.2,0.4c0.5,0.4,1.1,0.6,1.7,0.7v0.5c0,0.2,0.2,0.4,0.4,0.4
		C29.9,13.2,30.1,13,30.1,12.8z M30,10c0.7,0.2,0.9,0.4,0.9,0.8c0,0.4-0.3,0.7-0.9,0.8V10z M29.4,8.9c-0.1,0-0.2-0.1-0.3-0.1l0,0
		c-0.4-0.2-0.5-0.4-0.5-0.7c0-0.4,0.3-0.7,0.8-0.7V8.9L29.4,8.9z"/>
	<path class="st0" d="M16,8.7c1.4,0,2.5-1.2,2.5-2.5S17.3,3.7,16,3.7s-2.5,1.2-2.5,2.5S14.5,8.7,16,8.7z M16,4.9
		c0.8,0,1.4,0.6,1.4,1.4S16.8,7.6,16,7.6c-0.8,0-1.4-0.6-1.4-1.4S15.2,4.9,16,4.9z"/>
	<path class="st0" d="M34.8,20.8c0,1.4,1.2,2.6,2.6,2.6s2.6-1.2,2.6-2.6c0-1.4-1.2-2.6-2.6-2.6S34.8,19.3,34.8,20.8z M38.8,20.8
		c0,0.8-0.6,1.4-1.4,1.4c-0.8,0-1.4-0.6-1.4-1.4s0.6-1.4,1.4-1.4C38.1,19.3,38.8,20,38.8,20.8z"/>
</g>
</svg>
