<?xml version="1.0" encoding="utf-8"?>
<!-- Generator: Adobe Illustrator 25.2.1, SVG Export Plug-In . SVG Version: 6.00 Build 0)  -->
<svg version="1.1" id="Capa_1" xmlns="http://www.w3.org/2000/svg" xmlns:xlink="http://www.w3.org/1999/xlink" x="0px" y="0px"
	 viewBox="0 0 569.9 569.9" style="enable-background:new 0 0 569.9 569.9;" xml:space="preserve">
<style type="text/css">
	.st0{fill:#092240;}
</style>
<g>
	<path class="st0" d="M413.3,2.4H156.5c-20.8,0-38.4,17.5-38.4,38.4V531c0,20.8,17.5,38.4,38.4,38.4h256.8
		c20.8,0,38.4-17.5,38.4-38.4V40.8C451.7,19.9,435,2.4,413.3,2.4z M284.9,546.1c-13.3,0-24.2-10.8-24.2-24.2
		c0-13.3,10.8-24.2,24.2-24.2s24.2,10.8,24.2,24.2C308.2,535.2,297.4,546.1,284.9,546.1z M400,453.5c0,5.8-5,10.8-10.8,10.8H179.8
		c-5.8,0-10.8-5-10.8-10.8V75.8c0-5.8,5-10.8,10.8-10.8h209.3c5.8,0,10.8,5,10.8,10.8V453.5L400,453.5z"/>
	<path class="st0" d="M354.1,292.6l-10.8,13.3v-71.7c0-5.8-5-10.8-10.8-10.8h-0.8c-0.8,0-1.7,0-2.5,0h-35c-6.7,0-11.7,5-11.7,11.7
		s5,11.7,11.7,11.7h27.5v57.5l-10-12.5c-5-6.7-13.3-8.3-18.3-4.2c-5,4.2-4.2,12.5,0.8,18.3l26.7,33.4c0.8,0.8,1.7,2.5,3.3,3.3
		c1.7,2.5,5,4.2,8.3,4.2c2.5,0,5-0.8,6.7-2.5c1.7-0.8,4.2-2.5,5.8-5l26.7-33.4c5-6.7,5-15,0.8-18.3
		C367.4,284.2,359.1,285.9,354.1,292.6z"/>
	<path class="st0" d="M276.6,325.1H249v-57.5l10,12.5c5,6.7,13.3,8.3,18.3,4.2c5-4.2,4.2-12.5-0.8-18.3l-26.7-33.4
		c-0.8-0.8-1.7-2.5-3.3-3.3c-1.7-2.5-5-4.2-8.3-4.2c-2.5,0-5,0.8-6.7,2.5c-1.7,0.8-4.2,2.5-5.8,5L199,265.9c-5,6.7-5,15-0.8,18.3
		c5,4.2,12.5,1.7,18.3-4.2l10.8-13.3v71.7c0,5.8,5,10.8,10.8,10.8h0.8c0.8,0,1.7,0,2.5,0h35.9c6.7,0,11.7-5,11.7-11.7
		C288.2,330.1,283.2,325.1,276.6,325.1z"/>
</g>
</svg>
