<?xml version="1.0" encoding="utf-8"?>
<!-- Generator: Adobe Illustrator 25.2.1, SVG Export Plug-In . SVG Version: 6.00 Build 0)  -->
<svg version="1.1" id="Capa_1" xmlns="http://www.w3.org/2000/svg" xmlns:xlink="http://www.w3.org/1999/xlink" x="0px" y="0px"
	 viewBox="0 0 487.4 487.4" style="enable-background:new 0 0 487.4 487.4;" xml:space="preserve">
<style type="text/css">
	.st0{fill:#092240;}
</style>
<g>
	<g>
		<path class="st0" d="M37.9,252.8c1.2,3.6,6,3.6,8.4,0l33.7-59c1.2-3.6,0-7.2-3.6-7.2H58.4v-36.1c0-22.9,19.3-42.1,42.1-42.1H145
			V78.3h-44.5c-39.7,0-73.4,32.5-73.4,73.4v36.1H9c-3.6,0-6,3.6-3.6,7.2L37.9,252.8z"/>
		<circle class="st0" cx="159.5" cy="387.6" r="49.3"/>
		<circle class="st0" cx="72.8" cy="387.6" r="16.8"/>
		<circle class="st0" cx="246.1" cy="387.6" r="16.8"/>
		<path class="st0" d="M289.4,291.3H30.7C16.2,291.3,3,303.3,3,319v139.6c0,14.4,12,27.7,27.7,27.7h260c14.4,0,27.7-12,27.7-27.7
			V319C317.1,303.3,305.1,291.3,289.4,291.3z M294.2,429.7c-1.2,0-3.6,0-4.8,0c-15.6,0-27.7,12-27.7,27.7c0,1.2,0,3.6,0,4.8H59.6
			c0-2.4,1.2-4.8,1.2-7.2c0-15.6-12-27.7-27.7-27.7c-2.4,0-4.8,0-7.2,1.2v-84.2c2.4,0,4.8,1.2,7.2,1.2c15.6,0,27.7-12,27.7-27.7
			c0-1.2,0-2.4,0-3.6h201c0,1.2,0,3.6,0,4.8c0,15.6,12,27.7,27.7,27.7c1.2,0,3.6,0,4.8,0V429.7L294.2,429.7L294.2,429.7z"/>
		<path class="st0" d="M449.5,233.5c-1.2-3.6-6-3.6-8.4,0l-33.7,59c-1.2,3.6,0,7.2,3.6,7.2H429v36.1c0,22.9-19.3,42.1-42.1,42.1
			h-43.3V408h44.5c39.7,0,73.4-32.5,73.4-73.4v-36.1h18.1c3.6,0,6-3.6,3.6-7.2L449.5,233.5z"/>
		<circle class="st0" cx="327.9" cy="98.7" r="49.3"/>
		<circle class="st0" cx="241.3" cy="98.7" r="16.8"/>
		<circle class="st0" cx="414.6" cy="98.7" r="16.8"/>
		<path class="st0" d="M456.7,1.2h-260c-14.4,0-27.7,12-27.7,27.7v139.6c0,14.4,12,27.7,27.7,27.7h260c14.4,0,27.7-12,27.7-27.7
			V28.9C484.4,13.3,472.4,1.2,456.7,1.2z M461.5,139.6c-1.2,0-3.6,0-4.8,0c-15.6,0-27.7,12-27.7,27.7c0,1.2,0,3.6,0,4.8H226.9
			c0-2.4,1.2-4.8,1.2-7.2c0-15.6-12-27.7-27.7-27.7c-2.4,0-4.8,0-7.2,1.2V54.2c2.4,0,4.8,1.2,7.2,1.2c15.6,0,27.7-12,27.7-27.7
			c0-1.2,0-2.4,0-3.6h201c0,1.2,0,3.6,0,4.8c0,15.6,12,27.7,27.7,27.7c1.2,0,3.6,0,4.8,0V139.6L461.5,139.6z"/>
	</g>
</g>
</svg>
